Coordinates
version=1
nRows=8
nColumns=42
inDegrees=yes

Units are S.I. units (second, meters, Newtons, ...)
If the header above contains a line with 'inDegrees', this indicates whether rotational values are in degrees (yes) or radians (no).

endheader
time	pelvis_tilt	pelvis_list	pelvis_rotation	pelvis_tx	pelvis_ty	pelvis_tz	hip_flexion_r	hip_adduction_r	hip_rotation_r	knee_angle_r	knee_angle_r_beta	ankle_angle_r	subtalar_angle_r	mtp_angle_r	hip_flexion_l	hip_adduction_l	hip_rotation_l	knee_angle_l	knee_angle_l_beta	ankle_angle_l	subtalar_angle_l	mtp_angle_l	lumbar_extension	lumbar_bending	lumbar_rotation	sh_tx_r	sh_ty_r	sh_tz_r	sh_plane_elev_r	sh_elev_r	sh_axial_rot_r	elbow_flex_r	pro_sup_r	sh_tx_l	sh_ty_l	sh_tz_l	sh_plane_elev_l	sh_elev_l	sh_axial_rot_l	elbow_flex_l	pro_sup_l
      0.00000000	     -2.62808127	     -0.49244821	      2.03162435	      0.33880929	      0.93173319	     -0.04836309	     -1.62486659	     -3.79528958	      0.21121413	      3.21374095	      0.05609036	      0.36120020	     -6.56747733	     -5.14816563	      0.28707791	     -2.01624650	     -3.12498514	      5.07274557	      0.08853611	     12.08955308	     -4.69577076	     -5.14816563	     -2.62462407	      0.84464056	     -2.23833357	     -0.00027885	     -0.01748396	     -0.00501479	      3.08638261	      7.36215063	      1.48387464	     20.29397037	     77.88474666	      0.00010640	     -0.01751719	     -0.00485840	     18.81701854	      6.45284019	     -1.84324941	     21.47995278	     65.96882784
      0.01694910	     -3.80120803	     -0.62536777	      2.01068072	      0.34007364	      0.92856704	     -0.04888508	     -0.55938643	     -3.82788973	      0.63951255	      2.93078120	      0.05115178	      2.81262186	     -2.73604551	     -5.96400967	      1.80048090	     -1.64537028	     -2.40567205	      4.89778696	      0.08548251	     11.79268255	     -4.76071807	     -5.96400967	     -0.06194964	      1.02411317	     -2.45934537	      0.00205144	     -0.01701791	     -0.00539152	     -6.71825499	      5.77681241	      1.74776985	     18.88911465	     79.04041925	      0.00294897	     -0.01715041	     -0.00508878	      6.90103771	      4.16803518	     -1.32180074	     21.70655275	     70.00607919
      0.03389830	     -4.10843480	     -0.04769281	      1.86081391	      0.33977949	      0.92781018	     -0.04823163	     -0.39839630	     -4.63903701	      0.54351650	      2.42785555	      0.04237407	      3.41041121	     -2.56802597	     -6.08091818	      1.75052801	     -0.98911325	     -2.83782458	      4.26176407	      0.07438182	     11.67991246	     -3.94404679	     -6.08091818	      0.23481979	      0.13456593	     -2.63661631	      0.00158455	     -0.01694065	     -0.00539674	     -8.68359892	      4.97081534	      0.67633013	     18.12806606	     78.36016687	      0.00064592	     -0.01716028	     -0.00493958	      5.69512222	      4.25250973	     -2.65365089	     22.00577528	     70.16439001
      0.05084750	     -3.76615134	      0.26423558	      1.87652431	      0.33986460	      0.92880503	     -0.04800072	     -0.93355925	     -5.04371556	      0.75923456	      2.05952481	      0.03594549	      3.79996182	     -2.31425978	     -6.09489811	      0.76714631	     -0.61331968	     -2.54002272	      3.25188443	      0.05675609	     11.35763230	     -3.89945772	     -6.09489811	     -0.16558638	     -0.34082096	     -3.03439557	      0.00228664	     -0.01731601	     -0.00545932	     -8.67392405	      4.73549816	      1.29301366	     17.18299999	     78.08226880	     -0.00264421	     -0.01724344	     -0.00483679	      6.07908436	      4.50585316	     -2.14137619	     21.13859038	     70.01263323
      0.06779660	     -3.46261561	      0.30932984	      1.59960907	      0.33551504	      0.92952899	     -0.04293307	     -1.11107558	     -5.01646485	      0.85098912	      1.95591281	      0.03413712	      4.31195123	     -1.81695853	     -6.11846467	      0.10558878	     -0.63480147	     -2.43904556	      2.49807077	      0.04359956	     11.13829419	     -3.96046024	     -6.11846467	     -0.58218143	     -0.51025752	     -3.01915464	      0.00385949	     -0.01761667	     -0.00541507	     -9.30400946	      4.34504672	      0.91643739	     16.62691912	     77.81802979	     -0.00277346	     -0.01730633	     -0.00466483	      5.52672187	      4.67551170	     -2.55001255	     21.23249958	     69.78543888
      0.08474580	     -3.28794166	      0.36690960	      1.46526920	      0.33130564	      0.92993883	     -0.04736858	     -1.01545475	     -5.08219356	      0.95411117	      2.00004424	      0.03490736	      4.51293087	     -1.84133879	     -6.53212583	     -0.08923310	     -0.53981025	     -1.95532083	      2.12603486	      0.03710631	     10.86993263	     -4.29585137	     -6.53212583	     -0.81519202	     -0.60977773	     -2.79805924	      0.00696159	     -0.01783609	     -0.00538149	    -10.54217979	      4.29263991	      1.17291649	     17.11813553	     75.53294273	      0.00017537	     -0.01742014	     -0.00444911	      4.37090321	      4.55899220	     -1.95019274	     21.49898760	     67.10755471
      0.10169490	     -3.03268439	      0.41118468	      1.38435343	      0.33103177	      0.93044379	     -0.04736424	     -1.06061227	     -5.14474727	      1.02511567	      2.05847320	      0.03592713	      4.58227608	     -1.88136055	     -6.77569269	     -0.37559262	     -0.49638577	     -1.73887995	      1.82279983	      0.03181386	     10.66976483	     -4.31308798	     -6.77569269	     -1.16356477	     -0.69093172	     -2.55831011	      0.00881158	     -0.01796159	     -0.00522716	     -9.59396443	      4.41255740	      0.39926984	     17.08804162	     73.67459451	      0.00317149	     -0.01737584	     -0.00447906	      5.87577286	      4.75585838	     -2.48457187	     21.59535559	     65.67483222
      0.11864410	     -2.80090734	      0.44855812	      1.33336314	      0.33088970	      0.93335487	     -0.04676450	     -1.24724111	     -5.16706746	      0.97884146	      1.99732269	      0.03485986	      4.40700978	     -1.67640691	     -6.79986153	     -0.65008450	     -0.55237404	     -1.81297365	      1.57927580	      0.02756356	     10.29406283	     -4.23279617	     -6.79986153	     -1.42790491	     -0.78537552	     -2.52547729	      0.01166693	     -0.01800095	     -0.00530649	     -8.52559828	      4.68808530	      0.42703536	     17.53077540	     73.51097173	      0.00500036	     -0.01727706	     -0.00433935	      7.11114655	      4.94887119	     -2.43051794	     21.46792259	     65.35441575
